<svg class="svg-icon" style="width: 1em; height: 1em;vertical-align: middle;fill: currentColor;overflow: hidden;" viewBox="0 0 1024 1024" version="1.1" xmlns="http://www.w3.org/2000/svg"><path d="M700.8 400c69.12 56.96 113.28 143.36 113.28 240 0 171.52-139.52 311.04-311.04 311.04S192 811.52 192 640c0-118.4 65.92-221.44 163.2-273.92" fill="#F4F4F4" /><path d="M395.52 456.32l-131.84 191.36 34.56 90.24 282.88 8.96 62.72-88.32-141.44-202.24z" fill="#FFDDC3" /><path d="M263.68 839.04c249.6-196.48 385.28 75.52 385.28 75.52 22.4-8.96 42.24-21.76 58.24-40.32 0 0-48.64-142.08-211.2-167.04-162.56-24.96-265.6 71.04-265.6 71.04 7.04 26.24 18.56 46.08 33.28 60.8zM191.36 640C359.68 567.04 326.4 383.36 326.4 383.36l28.16-17.28 40.96 17.92s35.2 224-197.12 323.2M556.16 407.68s-8.96 229.76 253.44 239.36c2.56 28.16 1.28 53.76-7.04 75.52C460.8 697.6 485.76 393.6 485.76 393.6" fill="#FF9797" /><path d="M718.72 374.4s30.72-193.28-158.08-225.92c0 0-179.2-35.2-223.36 186.88" fill="#F4F4F4" /><path d="M718.72 374.4l-381.44-39.04 26.24 45.44 325.12 36.48z" fill="#C9C9C9" /><path d="M688.64 430.08h-1.28l-325.12-36.48c-3.84-0.64-7.68-2.56-9.6-6.4l-26.24-44.8c-2.56-4.48-2.56-9.6 0.64-13.44 2.56-3.84 7.04-6.4 12.16-5.76l381.44 39.04c4.48 0.64 8.32 3.2 10.24 7.68 1.92 3.84 1.28 8.96-1.28 12.8l-30.08 42.24c-2.56 3.2-6.4 5.12-10.88 5.12zM371.2 368.64l311.68 35.2 12.8-18.56-334.72-34.56 10.24 17.92z" fill="#708DB7" /><path d="M547.2 252.8m-43.52 0a43.52 43.52 0 1 0 87.04 0 43.52 43.52 0 1 0-87.04 0Z" fill="#FFF27D" /><path d="M547.2 309.12c-30.72 0-56.32-24.96-56.32-56.32s24.96-56.32 56.32-56.32c30.72 0 56.32 24.96 56.32 56.32s-25.6 56.32-56.32 56.32z m0-87.04c-16.64 0-30.72 13.44-30.72 30.72s13.44 30.72 30.72 30.72 30.72-13.44 30.72-30.72-14.08-30.72-30.72-30.72zM502.4 963.84c-178.56 0-323.84-145.28-323.84-323.84 0-119.04 65.28-228.48 170.24-284.8 6.4-3.2 14.08-1.28 17.28 5.12s1.28 14.08-5.12 17.28c-96.64 52.48-156.8 152.96-156.8 262.4 0 164.48 133.76 298.24 298.24 298.24s298.24-133.76 298.24-298.24c0-88.96-39.68-172.8-108.16-229.76-5.76-4.48-6.4-12.8-1.92-17.92 4.48-5.76 12.8-6.4 17.92-1.92 74.88 62.08 117.76 152.96 117.76 249.6 0 178.56-145.28 323.84-323.84 323.84z" fill="#708DB7" /><path d="M718.72 387.2h-1.92c-7.04-1.28-11.52-7.68-10.88-14.72 1.28-7.68 26.24-181.12-147.84-211.2-7.04-1.28-167.68-29.44-208.64 176.64-1.28 7.04-8.32 11.52-15.36 10.24-7.04-1.28-11.52-8.32-10.24-15.36C371.2 101.12 561.28 135.68 563.2 135.68c198.4 34.56 168.32 238.72 168.32 240.64-1.28 6.4-6.4 10.88-12.8 10.88z" fill="#708DB7" /><path d="M483.2 165.76h-0.64c-7.04-0.64-12.8-6.4-12.16-13.44l4.48-88.32c0.64-7.04 6.4-12.16 13.44-12.16 7.04 0.64 12.8 6.4 12.16 13.44L496 153.6c0 7.04-5.76 12.16-12.8 12.16zM808.96 673.92C536.96 663.68 542.72 409.6 543.36 407.04l25.6 0.64-12.8-0.64 12.8 0.64c0 9.6-5.12 230.4 241.28 240l-1.28 26.24z" fill="#708DB7" /><path d="M801.28 736c-111.36-8.32-196.48-46.08-253.44-112.64-85.12-99.2-75.52-224.64-74.88-230.4l25.6 1.92c0 1.28-8.96 120.32 69.12 211.2 52.48 60.8 131.84 96 236.16 103.68l-2.56 26.24zM196.48 651.52l-10.24-23.68c156.8-67.84 129.28-235.52 128-242.56l24.96-4.48c0.64 2.56 33.28 194.56-142.72 270.72z" fill="#708DB7" /><path d="M204.16 719.36l-10.24-23.68C414.72 601.6 384 388.48 383.36 385.92l25.6-3.84c0 2.56 33.92 235.52-204.8 337.28zM637.44 920.32c-0.64-1.28-56.96-112.64-160.64-135.68-64-14.08-132.48 7.68-205.44 64.64l-16-19.84c78.72-62.08 154.88-85.12 226.56-69.12 115.2 26.24 175.36 144 177.92 149.12l-22.4 10.88z" fill="#708DB7" /><path d="M694.4 878.72c-1.92-5.76-48.64-135.04-200.96-158.72-154.24-23.68-254.08 67.2-255.36 67.84l-17.28-18.56c4.48-3.84 109.44-99.84 276.48-74.24 168.32 25.6 219.52 169.6 221.44 175.36l-24.32 8.32z" fill="#708DB7" /><path d="M622.464 668.0384l20.1664 15.7632-47.68 61.0176-20.1728-15.7632z" fill="#708DB7" /><path d="M285.1712 667.584l25.024 56.1152-23.3792 10.432-25.024-56.1152z" fill="#708DB7" /><path d="M484.8 442.3232l0.768 25.5872-86.9952 2.6368-0.768-25.5872z" fill="#708DB7" /></svg>